<svg id="Capa_1" enable-background="new 0 0 512 512" height="512" viewBox="0 0 512 512" width="512" xmlns="http://www.w3.org/2000/svg"><g><path d="m463.999 448.747h15v74.134h-15z" transform="matrix(.288 -.958 .958 .288 -129.457 797.551)"/><path d="m406 460.554h15v15.663h-15z" transform="matrix(.288 -.958 .958 .288 -154.075 729.586)"/><path d="m391 358.998v-51.389h-15v53.328c-5.007.686-10.008 1.405-15 2.176v-86.282c4.923 1.171 10.077 1.171 15-.004v15.782h15v-19.462c11.119 6.68 25.551 6.022 35.992-2.022 17.983 13.329 36.606 5.027 50.146-10.113-10.124-8.695-22.759-19.679-28.174-32.068 5.405-2.248 13.018-9.456 17.631-13.144-14.014-10.072-22.161-16.234-29.816-32.335 4.915-2.097 12.799-8.429 17.249-11.545-10.404-9.644-22.066-21.019-28.77-33.575 4.165-2.103 11.017-8.892 14.634-11.96 0 0-19.276-11.628-37.25-47.598 2.355-5.529 1.903-11.725-1.335-16.932l-33.274-53.52-40.436 63.933c-3.507 5.496-4.183 12.46-1.743 18.511 0 0-11.236 22.111-29.794 35.608 3.651 3.093 10.426 9.817 14.616 11.952 0 0-8.017 16.085-28.732 33.596 4.492 3.144 12.276 9.407 17.229 11.533-7.002 15.05-16.349 23.386-30.181 32.029 4.814 3.839 12.619 11.277 18.275 13.579-6.674 14.943-15.752 21.442-27.406 31.936 13.664 15.18 32.025 23.435 50.132 10.111 10.445 8.048 24.884 8.703 36.005 2.011v92.436c-4.625 1.401-170.724 27.289-180.01 28.817v-76.697c11.186 7.018 25.914 6.453 36.516-1.716 17.976 13.319 36.603 5.037 50.146-10.111-10.886-6.94-28.175-32.069-28.175-32.069 5.406-2.248 13.019-9.457 17.632-13.145-14.014-10.073-22.16-16.233-29.816-32.335 4.915-2.097 12.799-8.429 17.249-11.545-12.132-6.158-28.771-33.575-28.771-33.575 4.166-2.103 11.017-8.893 14.635-11.96-18.591-11.308-58.913-83.615-71.914-103.355-.001.001-25.35 40.769-25.35 40.769l12.738 7.921 12.61-20.281c8.99 12.963 37.509 64.757 49.452 74.101-12.696 6.113-20.252-1.085-29.164-9.414-11.247 15.059-31.267 11.86-40.583-.001-8.913 8.336-16.48 15.52-29.159 9.415 10.229-8.482 21.038-28.921 28.268-40.027l-12.738-7.921c-5.668 8.482-16.51 28.731-24.096 35.366 0 0-13.897 13.429-13.897 13.429 3.651 3.093 10.425 9.818 14.615 11.953 0 0-7.957 15.795-28.729 33.595 4.491 3.145 12.274 9.408 17.227 11.534-7.004 15.052-16.35 23.385-30.182 32.028 4.814 3.839 12.619 11.277 18.275 13.579-6.674 14.944-15.752 21.442-27.406 31.936l8.987 8.297c11.445 10.565 29 11.169 41.145 1.815 10.282 7.922 24.435 8.677 35.482 2.316v83.199l-70.129 11.067h-50.856v15c128.162-2.208 263.919-1.418 388.842 41.251l4.316-14.365c-81.623-25.494-165.706-39.958-247.438-41.67 107.119-14.783 259.051-48.837 366.28-45.045v-15s-78.158-1.287-121 6.272zm-50.725-278.712 27.648-43.717c.209 1.76 24.343 35.574 20.733 36.744-.374.671-1.265 1.795-3.053 1.795h-15.336c-8.354 0-16.058 4.184-20.605 11.191-3.971 6.042-13.249.128-9.387-6.013zm-3.743 21.727c9.05 4.081 20.162 1.012 25.713-7.547 5.489-8.445 21.392-1.985 29.198-5.284 6.905 10.763 16.156 28.113 25.986 36.358-12.697 6.113-19.034.716-29.164-9.414-11.308 16.249-29.691 13.951-40.583 0-8.913 8.336-16.481 15.518-29.158 9.414 0-.001 11.853-12.522 18.008-23.527zm-10.875 40.664c7.712.391 15.532-1.827 22.023-6.666 12.014 8.954 28.571 8.954 40.585 0 6.5 4.833 14.258 7.065 22.023 6.67 5.708 9.46 12.122 19.539 20.087 27.225-14.07 6.566-26.287 1.319-37.601-8.07-12.829 12.829-32.668 13.049-49.604 0-8.588 8.588-23.56 14.631-37.611 8.059 8.7-7.354 20.098-27.218 20.098-27.218zm-11.684 44.888c10.064.99 20.382-1.426 29.198-7.249 15.072 9.956 34.531 9.956 49.604 0 8.827 5.809 19.028 8.249 29.204 7.244 5.057 10.249 11.254 20.554 19.918 28.129-12.739 5.293-21.684-.36-30.663-9.339-10.133 14.11-30.164 16.188-43.264-.001-10.108 12.962-28.616 14.648-43.264 0-9.286 8.437-17.935 14.621-30.646 9.339 11.499-8.787 19.913-28.123 19.913-28.123zm-3.979 63.314c-8.264 7.848-15.233 15.803-27.438 9.906 8.816-7.362 14.785-18.058 19.828-28.23 7.807.144 15.65-2.133 22.323-6.845 12.949 9.149 30.313 9.149 43.263 0 12.949 9.148 30.314 9.147 43.264 0 6.73 4.744 14.617 7.049 22.515 6.846 5.473 9.964 11.754 21.006 20.697 28.232-12.163 5.914-19.229-2.079-27.453-9.907-6.275 13.402-27.576 16.603-39.003 0-8.343 14.451-31.739 11.618-39.001-.003-8.793 14.39-26.798 15.922-38.995.001zm-214.488-54.3 5.664-9.052c7.713.391 15.533-1.827 22.024-6.666 12.015 8.954 28.572 8.954 40.585 0 6.5 4.833 14.257 7.065 22.022 6.669 5.709 9.461 12.12 19.538 20.087 27.226-14.068 6.564-26.288 1.318-37.601-8.071-16.12 14.46-33.584 14.32-49.604-.001-11.311 9.396-23.561 14.634-37.612 8.061 5.473-5.491 10.325-11.596 14.435-18.166zm-6.019 35.836c10.063.99 20.381-1.425 29.197-7.25 15.072 9.956 34.531 9.955 49.604 0 8.827 5.809 19.028 8.248 29.204 7.244 5.057 10.25 11.253 20.555 19.918 28.129-12.74 5.293-21.368-.907-30.663-9.339-9.257 11.655-27.684 15.581-43.265 0-9.223 11.655-26.951 16.311-43.263-.001-9.285 8.437-17.933 14.622-30.646 9.339 11.499-9.146 19.914-28.122 19.914-28.122zm-3.979 63.314c-8.264 7.848-15.233 15.802-27.438 9.907 8.814-7.36 14.786-18.058 19.828-28.23 7.807.144 15.65-2.133 22.323-6.846 12.951 9.149 30.315 9.148 43.263 0 12.95 9.148 30.315 9.148 43.264 0 6.73 4.744 14.617 7.049 22.515 6.846 5.473 9.964 11.756 21.008 20.697 28.232-12.163 5.915-19.229-2.08-27.453-9.907-8.749 14.347-32.7 13.369-39.003 0-6.911 11.97-30.283 11.97-39.001-.001-8.794 11.971-25.205 16.262-38.995-.001zm50.482 25.818c4.908 1.255 10.06 1.327 15 .235v74.973l-15 2.367z"/><path d="m16 442.662h15v15h-15z"/><path d="m46 442.662h15v15h-15z"/><path d="m451 382.534h15v15h-15z"/><path d="m481 382.534h15v15h-15z"/></g></svg>