<svg id="Capa_1" enable-background="new 0 0 512 512" height="512" viewBox="0 0 512 512" width="512" xmlns="http://www.w3.org/2000/svg"><g><g><g><path d="m198.497 443.259c-7.513 0-14.657-3.254-19.601-8.927-2.721-3.123-2.396-7.86.727-10.582 3.123-2.721 7.86-2.396 10.582.727 2.094 2.403 5.116 3.781 8.292 3.781s6.198-1.378 8.292-3.781c2.721-3.124 7.458-3.448 10.582-.727s3.448 7.458.727 10.582c-4.944 5.673-12.088 8.927-19.601 8.927z"/></g><g><path d="m313.503 443.259c-7.513 0-14.658-3.254-19.601-8.927-2.721-3.123-2.396-7.86.727-10.582 3.123-2.721 7.86-2.396 10.582.727 2.094 2.403 5.117 3.781 8.292 3.781s6.198-1.378 8.292-3.781c2.722-3.124 7.458-3.448 10.582-.727 3.123 2.721 3.448 7.458.727 10.582-4.943 5.673-12.087 8.927-19.601 8.927z"/></g><g><ellipse cx="256" cy="448.442" rx="10.783" ry="11.5"/></g></g><path d="m503.569 212.434c-5.433-5.23-12.575-7.954-20.104-7.668-7.416.281-14.663.72-21.774 1.301 12.22-20.079 27.498-37.671 45.562-52.394 4.68-3.815 6.067-10.258 3.373-15.668-2.702-5.425-8.695-8.207-14.577-6.768-11.671 2.859-28.095 8.454-45.884 19.345 8.57-32.798 22.15-62.255 34.332-84.503 3.408-6.224 1.725-13.774-4.002-17.954-5.724-4.177-13.427-3.478-18.313 1.667-12.546 13.207-26.777 29.786-40.826 49.49 8.216-27.332 17.918-53.159 29.016-77.137 3.417-7.383.82-15.753-6.177-19.902-6.988-4.144-15.571-2.408-20.404 4.126-20.028 27.08-37.535 55.91-52.413 86.181-14.945-30.382-32.536-59.317-52.405-86.181-4.833-6.535-13.416-8.269-20.404-4.126-6.997 4.148-9.595 12.519-6.177 19.902 11.099 23.981 20.801 49.807 29.016 77.137-14.049-19.704-28.279-36.284-40.826-49.49-4.887-5.143-12.589-5.843-18.313-1.666-5.727 4.179-7.41 11.729-4.002 17.954 12.623 23.053 25.998 52.339 34.413 84.556-17.805-10.915-34.251-16.528-45.966-19.398-5.881-1.439-11.875 1.343-14.577 6.768-2.694 5.411-1.308 11.854 3.373 15.668 33.479 27.288 51.308 59.727 60.169 81.088h-130.537c6.804-15.625 19.751-38.006 43.041-56.989 4.178-3.405 5.417-9.157 3.011-13.986-2.411-4.839-7.758-7.321-13.005-6.036-7.914 1.939-18.694 5.544-30.501 12.188 6.218-21.905 15.398-41.803 24.096-57.689 3.001-5.481 1.518-12.13-3.526-15.811-5.042-3.679-11.825-3.063-16.127 1.467-7.308 7.692-15.383 16.923-23.561 27.596 5.281-16.134 11.281-31.498 17.969-45.948 2.96-6.396.709-13.646-5.352-17.24-6.056-3.59-13.49-2.086-17.676 3.575-14.147 19.127-26.614 39.422-37.317 60.697-10.75-21.354-23.253-41.72-37.289-60.697-4.187-5.661-11.621-7.165-17.677-3.574-6.062 3.593-8.312 10.843-5.352 17.239 6.689 14.451 12.688 29.814 17.968 45.947-8.178-10.673-16.252-19.904-23.56-27.596-4.302-4.529-11.085-5.145-16.127-1.468-5.044 3.68-6.527 10.329-3.526 15.811 8.697 15.882 17.878 35.781 24.096 57.689-11.807-6.645-22.586-10.25-30.5-12.188-5.244-1.288-10.595 1.196-13.005 6.036-2.405 4.829-1.167 10.581 3.011 13.986 23.29 18.982 36.236 41.364 43.04 56.989h-19.773c-15.164 0-27.5 12.336-27.5 27.5v202.239c0 26.191 21.309 47.5 47.5 47.5h417c26.191 0 47.5-21.309 47.5-47.5v-232.249c0-7.544-2.994-14.582-8.431-19.816zm-13.322-63.966c-18.88 16.859-34.63 36.825-46.94 59.474-.563.069-1.126.138-1.687.209.325-12.268 1.68-24.393 3.813-36.214 16.41-12.35 32.318-19.433 44.814-23.469zm-54.397-133.18c.148-.2.257-.285.247-.289.211-.022.716.267.79.444 0 .001-.002.128-.127.4-17.229 37.222-31.186 78.705-41.484 123.295-.137.595-.191 1.189-.185 1.774-8.696 15.732-16.785 32.777-23.708 51.082-3.925-10.378-8.229-20.345-12.801-29.906 18.34-52.874 44.325-102.261 77.268-146.8zm-88.123 124.886c-10.321-44.984-24.359-86.816-41.723-124.332-.113-.244-.126-.371-.132-.371.085-.21.559-.504.755-.485.029.016.138.101.286.301 21.696 29.334 40.596 61.217 56.211 94.783-4.976 11.065-9.597 22.313-13.875 33.724-.453-.835-.906-1.67-1.362-2.498-.028-.372-.074-.747-.16-1.122zm16.494 77.05c.977 3.134 3.878 5.268 7.16 5.268s6.184-2.134 7.16-5.268c20.782-66.666 58.734-118.119 88.91-151.091-19.159 36.58-40.045 88.901-40.891 144.214-13.107 2.162-25.781 4.915-38.141 8.294-3.996 1.092-6.349 5.216-5.257 9.212s5.221 6.351 9.212 5.257c28.238-7.719 58.22-12.087 91.659-13.356 3.425-.134 6.663 1.108 9.132 3.485 2.473 2.381 3.834 5.581 3.834 9.011v92.149c-75.77.503-128.572 8.636-172.351 19.439-23.738-6.018-45.4-12.989-66.348-19.734-8.597-2.767-17.238-5.548-26.082-8.286 9.487-5.849 18.775-11.809 27.836-17.642 31.472-20.262 64.015-41.214 104.37-56.109 3.886-1.435 5.873-5.748 4.439-9.633s-5.747-5.874-9.633-4.439c-5.818 2.147-11.453 4.419-16.957 6.778-.091-.003-.18-.014-.272-.014h-26.795c6.237-63.289-17.097-125.137-39.89-168.624 30.168 32.965 68.122 84.419 88.905 151.089zm-111.715-68.759c12.523 4.043 28.449 11.14 44.876 23.513 2.309 12.837 3.697 26 3.841 39.306-9.997-19.116-25.432-41.997-48.717-62.819zm-66.387 29.083c-11.107 11.174-19.45 22.806-25.657 33.408.412-6.749 1.227-13.432 2.381-20.002 8.173-6.075 16.157-10.384 23.276-13.406zm-39.291-90.442c-10.044 23.998-18.354 50.106-24.763 77.826-.101.437-.154.874-.177 1.307-5.669 10.289-10.99 21.325-15.68 33.09-2.322-5.825-4.801-11.469-7.397-16.937 11.847-33.939 27.961-65.923 48.017-95.286zm-48.878 56.867c-2.827 6.322-5.509 12.718-8.031 19.192-6.35-27.05-14.495-52.558-24.321-76.036 12.224 17.919 23.062 36.982 32.352 56.844zm1.098 79.996c.977 3.134 3.878 5.268 7.16 5.268s6.184-2.134 7.16-5.268c13.128-42.112 35.566-75.99 55.714-100.105-14.352 30.722-26.846 70.323-23.328 110.896h-79.093c3.517-40.577-8.977-80.181-23.326-110.896 20.147 24.115 42.585 57.993 55.713 100.105zm-49.474-33.015c1.154 6.569 1.967 13.252 2.38 20-6.207-10.601-14.549-22.233-25.656-33.406 7.118 3.021 15.103 7.331 23.276 13.406zm-22.074 58.806h283.686c-21.139 11.286-40.391 23.663-59.252 35.805-12.656 8.148-25.735 16.552-39.119 24.454-46.545-13.352-101.231-24.528-184.759-26.086-.046-.001-.093-.001-.14-.001h-12.916v-21.672c0-6.893 5.607-12.5 12.5-12.5zm437 247.238h-417c-17.92 0-32.5-14.58-32.5-32.5v-45.151c27.609-.178 52.826-1.343 76.894-3.552 4.125-.379 7.162-4.029 6.783-8.154s-4.03-7.162-8.154-6.783c-23.613 2.168-48.381 3.312-75.523 3.489v-105.415h12.849c109.675 2.054 168.741 21.066 225.854 39.452 13.665 4.399 27.64 8.891 42.331 13.176-14.66 4.268-28.55 8.738-42.333 13.175-38.604 12.428-78.522 25.279-133.504 32.76-4.104.559-6.979 4.338-6.42 8.443.512 3.761 3.729 6.49 7.422 6.49.336 0 .677-.023 1.021-.069 56.294-7.66 96.854-20.717 136.078-33.345 59.292-19.089 120.572-38.816 238.702-39.614v125.099c0 17.92-14.58 32.499-32.5 32.499z"/></g></svg>